<?xml version="1.0" encoding="UTF-8" standalone="no"?>
<!-- Created with Inkscape (http://www.inkscape.org/) -->
<svg
   xmlns:dc="http://purl.org/dc/elements/1.1/"
   xmlns:cc="http://creativecommons.org/ns#"
   xmlns:rdf="http://www.w3.org/1999/02/22-rdf-syntax-ns#"
   xmlns:svg="http://www.w3.org/2000/svg"
   xmlns="http://www.w3.org/2000/svg"
   xmlns:sodipodi="http://sodipodi.sourceforge.net/DTD/sodipodi-0.dtd"
   xmlns:inkscape="http://www.inkscape.org/namespaces/inkscape"
   width="48"
   height="48"
   id="svg2"
   sodipodi:version="0.32"
   inkscape:version="0.46"
   sodipodi:docname="globe.svg"
   inkscape:output_extension="org.inkscape.output.svg.inkscape"
   version="1.0">
  <defs
     id="defs4">
    <inkscape:perspective
       sodipodi:type="inkscape:persp3d"
       inkscape:vp_x="0 : 526.18109 : 1"
       inkscape:vp_y="0 : 1000 : 0"
       inkscape:vp_z="744.09448 : 526.18109 : 1"
       inkscape:persp3d-origin="372.04724 : 350.78739 : 1"
       id="perspective10" />
  </defs>
  <sodipodi:namedview
     id="base"
     pagecolor="#ffffff"
     bordercolor="#666666"
     borderopacity="1.0"
     gridtolerance="10000"
     guidetolerance="10"
     objecttolerance="10"
     inkscape:pageopacity="0.0"
     inkscape:pageshadow="2"
     inkscape:zoom="3.959798"
     inkscape:cx="8.4448979"
     inkscape:cy="36.269295"
     inkscape:document-units="px"
     inkscape:current-layer="layer1"
     showgrid="false"
     inkscape:window-width="1280"
     inkscape:window-height="953"
     inkscape:window-x="0"
     inkscape:window-y="24" />
  <metadata
     id="metadata7">
    <rdf:RDF>
      <cc:Work
         rdf:about="">
        <dc:format>image/svg+xml</dc:format>
        <dc:type
           rdf:resource="http://purl.org/dc/dcmitype/StillImage" />
      </cc:Work>
    </rdf:RDF>
  </metadata>
  <g
     inkscape:label="Layer 1"
     inkscape:groupmode="layer"
     id="layer1">
    <path
       sodipodi:type="arc"
       style="opacity:1;fill:#7791fe;fill-opacity:1;fill-rule:nonzero;stroke:none;stroke-width:6;stroke-linecap:round;stroke-linejoin:round;stroke-miterlimit:4;stroke-dasharray:6, 6;stroke-dashoffset:0;stroke-opacity:1"
       id="path2383"
       sodipodi:cx="138.3909"
       sodipodi:cy="130.09291"
       sodipodi:rx="50.507626"
       sodipodi:ry="50.507626"
       d="M 188.89853,130.09294 A 50.507626,50.507626 0 1 1 188.89853,130.09292"
       sodipodi:start="5.314537e-07"
       sodipodi:end="6.2831854"
       sodipodi:open="true"
       inkscape:export-filename="/home/andrew/Desktop/globe.png"
       inkscape:export-xdpi="57.021088"
       inkscape:export-ydpi="57.021088"
       transform="matrix(0.4577114,0,0,0.4577114,-39.215022,-35.633705)" />
    <path
       style="fill:none;fill-opacity:0.75;fill-rule:evenodd;stroke:none;stroke-width:1px;stroke-linecap:butt;stroke-linejoin:miter;stroke-opacity:1"
       d="M 47.477168,21.83069 C 47.477168,21.83069 47.014811,22.061871 46.436863,22.639818 C 45.858916,23.217766 44.471839,23.102176 43.084763,23.564533 C 41.697691,24.026894 41.119739,24.373662 39.385897,25.0672 C 37.652053,25.760738 39.15472,26.454275 39.15472,27.725761 C 39.15472,28.997247 39.15472,30.268733 38.923539,31.886985 C 38.692359,33.505238 38.576773,34.545547 38.461182,36.39498 C 38.345591,38.244413 37.767644,38.822361 37.420873,40.209433 C 37.074106,41.596509 35.918211,43.908304 34.993492,44.486251 C 34.068777,45.064199 32.103754,45.642147 31.294625,45.873323 C 30.485501,46.104504 29.907553,45.988913 28.520477,45.757737 C 27.133402,45.526556 27.248992,44.717428 26.786634,43.908304 C 26.324273,43.099176 25.861916,43.561533 25.283968,42.867994 C 24.70602,42.174456 24.359254,41.134152 23.781301,38.822361 C 23.203354,36.510566 23.318945,37.782052 23.203354,36.857337 C 23.087768,35.932619 22.740996,35.239085 22.278639,34.892313 C 21.816282,34.545547 17.886235,33.852009 16.84593,33.158471 C 15.80562,32.464933 15.574444,32.233752 14.996496,30.962266 C 14.418549,29.69078 14.996496,29.459604 15.69003,28.188119 C 16.383568,26.916633 16.499158,26.569861 16.84593,26.107504 C 17.192697,25.645147 18.001825,24.720428 19.15772,24.373662 C 20.313615,24.026894 22.509816,23.911304 24.70602,23.795714 C 24.70602,23.795714 25.283968,22.870995 26.093096,22.639818 C 26.90222,22.408638 28.520477,22.177461 29.560782,22.293047 C 30.601087,22.408638 31.525806,22.986585 32.681701,23.102176 C 33.837596,23.217766 34.762316,23.333356 34.993492,22.755409 C 35.224672,22.177461 35.918211,22.177461 35.687029,21.137152 C 35.455854,20.096847 35.455854,19.518899 33.953187,19.287719 C 32.45052,19.056542 30.369911,19.172128 29.098425,19.056542 C 27.82694,18.940952 26.093096,19.287719 25.399558,19.403309 C 24.70602,19.518899 23.550125,19.172128 21.931868,18.825361 C 20.313615,18.478595 19.735668,18.363004 19.504487,19.403309 C 19.273311,20.443614 19.735668,21.94628 18.579773,22.408638 C 17.423878,22.870995 16.961516,23.333356 16.036801,22.986585 C 15.112082,22.639818 14.302959,22.870995 14.071778,21.83069 C 13.840597,20.790385 13.262649,19.981257 13.262649,19.287719 C 13.262649,18.594181 13.840597,17.438285 13.840597,17.438285 C 13.840597,17.438285 13.956187,15.242085 14.302959,14.664138 C 14.649726,14.08619 14.880906,13.161471 15.921211,12.93029 C 16.961516,12.699114 18.348592,12.236756 19.273311,12.352342 C 20.198025,12.467933 21.469511,12.93029 21.931868,13.161471 C 22.39423,13.392652 23.896892,13.623828 24.82161,13.623828 C 25.746325,13.623828 26.555454,12.814705 27.248992,12.814705 C 27.942529,12.814705 30.25432,12.467933 30.369911,12.005576 C 30.485501,11.543219 29.445192,10.73409 28.636067,10.156143 C 27.82694,9.5781947 27.248992,9.1158358 27.248992,8.0755297 C 27.248992,7.0352235 27.248992,6.572865 27.942529,6.2260963 C 28.636067,5.8793274 29.676373,4.9546107 30.369911,5.0702002 C 31.063449,5.1857902 31.872572,5.6481483 32.56611,5.7637378 C 33.259649,5.8793274 34.531134,6.1105068 34.993492,5.8793274 C 35.455854,5.6481483 36.958515,5.3013797 36.958515,5.3013797 L 37.420873,5.0702002"
       id="path3155"
       inkscape:export-filename="/home/andrew/Desktop/globe.png"
       inkscape:export-xdpi="57.021088"
       inkscape:export-ydpi="57.021088" />
    <path
       style="fill:#14ff00;fill-opacity:1;fill-rule:evenodd;stroke:#07ff00;stroke-width:0.45771143px;stroke-linecap:butt;stroke-linejoin:miter;stroke-opacity:1"
       d="M 16.036801,11.080857 C 17.770644,10.965271 17.539468,11.427628 17.886235,10.965271 C 18.233001,10.502909 18.464182,9.5781947 18.464182,9.5781947 L 18.348592,8.0755297 L 17.886235,7.150813 C 17.886235,7.150813 17.539468,6.1105068 17.077106,6.9196339 C 16.614749,7.7287611 16.499158,8.3067087 16.499158,8.3067087 C 16.499158,8.3067087 16.036801,9.0002467 15.921211,9.4626048 C 15.80562,9.9249629 15.69003,10.040553 16.036801,11.080857 z"
       id="path3157"
       inkscape:export-filename="/home/andrew/Desktop/globe.png"
       inkscape:export-xdpi="57.021088"
       inkscape:export-ydpi="57.021088" />
    <path
       style="fill:#14ff00;fill-opacity:1;fill-rule:evenodd;stroke:#07ff00;stroke-width:0.45771143px;stroke-linecap:butt;stroke-linejoin:miter;stroke-opacity:1"
       d="M 14.880906,8.7690677 C 13.956187,8.6534778 13.956187,8.3067087 13.37824,8.7690677 C 12.800292,9.2314258 12.684702,10.271733 12.684702,10.271733 L 13.37824,10.6185 C 13.37824,10.6185 13.49383,11.543219 14.187369,10.73409 C 14.880906,9.9249629 15.112082,10.040553 14.996496,9.4626048 C 14.880906,8.8846568 14.418549,8.5378886 14.880906,8.7690677 z"
       id="path3159"
       inkscape:export-filename="/home/andrew/Desktop/globe.png"
       inkscape:export-xdpi="57.021088"
       inkscape:export-ydpi="57.021088" />
    <path
       style="opacity:1;fill:#14ff00;fill-opacity:1;fill-rule:nonzero;stroke:none;stroke-width:1.51522887;stroke-linecap:round;stroke-linejoin:round;stroke-miterlimit:4;stroke-dasharray:1.51522882, 1.51522882;stroke-dashoffset:0;stroke-opacity:1"
       d="M 28.892065,45.530347 C 27.939884,45.371927 27.732976,45.208996 27.208617,44.204704 C 26.786909,43.397018 26.677274,43.271705 26.257392,43.117488 C 25.996373,43.02162 25.696655,42.871267 25.591344,42.783373 C 25.115864,42.386514 24.479696,40.551197 23.433958,36.559436 C 23.178532,35.584424 22.984705,35.178044 22.610627,34.833241 C 22.34065,34.584393 22.061752,34.490612 19.231828,33.697078 C 17.483503,33.206832 16.779544,32.875166 16.148963,32.244581 C 15.641187,31.736806 15.101349,30.653613 15.086506,30.112735 C 15.080249,29.884786 15.346907,29.29069 15.864729,28.378893 C 17.048408,26.294658 17.297023,25.924058 17.800853,25.492793 C 18.781486,24.653414 19.556387,24.44933 22.656988,24.213856 L 24.823835,24.049291 L 25.31555,23.538713 C 25.850477,22.983249 26.20026,22.846013 27.598894,22.642849 C 28.740165,22.477066 29.892559,22.576613 30.913622,22.929179 C 32.014124,23.30918 33.342806,23.514231 34.159784,23.430158 C 34.760498,23.368344 34.864518,23.314897 35.259632,22.865059 C 36.007057,22.014113 36.081178,21.804527 35.921602,20.993147 C 35.68952,19.81308 35.362499,19.388717 34.483263,19.126641 C 33.684277,18.888485 28.505272,18.687796 27.342978,18.849954 C 25.334458,19.130174 24.58371,19.121542 23.133828,18.801547 C 21.309934,18.399003 20.23639,18.257131 19.921164,18.376978 C 19.439447,18.560132 19.251734,19.031441 19.160997,20.285658 C 19.114315,20.930916 19.012649,21.577456 18.935071,21.722414 C 18.765589,22.039096 17.219684,22.772797 16.721927,22.772797 C 16.199673,22.772797 14.853297,22.416437 14.622812,22.217199 C 14.510925,22.120476 14.347425,21.802802 14.25948,21.511254 C 14.171536,21.2197 13.985668,20.695154 13.846438,20.345595 C 13.521486,19.529761 13.529143,18.966364 13.87786,18.033626 C 14.032355,17.620391 14.190838,16.883983 14.23005,16.397166 C 14.319995,15.280428 14.657154,14.371605 15.206655,13.764726 C 15.597971,13.332545 15.741257,13.26458 16.849065,12.985682 C 18.577571,12.550522 19.504167,12.56668 20.836903,13.055218 C 22.423953,13.636978 22.938366,13.758532 24.134161,13.834353 C 25.208766,13.902483 25.257352,13.894482 26.156975,13.501184 C 26.761969,13.236696 27.34442,13.074066 27.851825,13.027961 C 28.778696,12.943743 29.984989,12.647722 30.344146,12.416353 C 30.728606,12.16869 30.684912,11.660548 30.235101,11.148246 C 30.032087,10.917019 29.464017,10.421848 28.972728,10.047861 C 28.481435,9.6738747 27.976327,9.223028 27.850255,9.0459796 C 27.546184,8.6189535 27.431385,7.7902835 27.593099,7.18973 C 27.701499,6.7871787 27.830217,6.6389164 28.37249,6.2920288 C 28.729739,6.0634962 29.293231,5.743512 29.624683,5.5809526 L 30.227324,5.2853891 L 31.273845,5.644899 C 32.375401,6.0233151 33.463458,6.2411555 34.25929,6.2426143 C 34.752657,6.2435169 37.213301,5.5416082 37.473349,5.3257886 C 37.824473,5.0343802 40.893304,7.8777874 42.423878,9.9126664 C 43.494136,11.335564 44.069108,12.255816 44.793958,13.705996 C 45.806837,15.732431 46.606372,18.274108 46.955244,20.576597 L 47.121627,21.674697 L 46.636324,22.103133 C 46.030516,22.637951 45.857881,22.705518 44.358473,22.994641 C 43.268369,23.20484 41.57161,23.805431 39.446827,24.733175 C 38.282148,25.241707 38.107289,25.606342 38.541268,26.621551 C 38.828967,27.29457 38.846451,27.43792 38.826148,28.95684 C 38.814243,29.846879 38.704501,31.381333 38.582265,32.366735 C 38.460024,33.352133 38.326972,34.600504 38.286588,35.140883 C 38.246204,35.681266 38.163171,36.461494 38.102067,36.874726 C 37.943913,37.944342 36.903979,41.031121 36.307059,42.202757 C 35.379951,44.02248 34.828853,44.447648 32.369103,45.240876 C 30.99406,45.684302 30.209835,45.74959 28.892065,45.530347 L 28.892065,45.530347 z"
       id="path3179"
       inkscape:export-filename="/home/andrew/Desktop/globe.png"
       inkscape:export-xdpi="57.021088"
       inkscape:export-ydpi="57.021088" />
  </g>
</svg>
